<svg width="20" height="18" viewBox="0 0 20 18" fill="none" xmlns="http://www.w3.org/2000/svg">
<path id="Vector" d="M1.34255 3.7779C1.5687 3.23194 1.90017 2.73586 2.31804 2.31799C2.7359 1.90012 3.23198 1.56865 3.77795 1.3425C4.32392 1.11635 4.90909 0.999954 5.50004 0.999954C6.09099 0.999954 6.67616 1.11635 7.22213 1.3425C7.7681 1.56865 8.26417 1.90012 8.68204 2.31799L10 3.63599L11.318 2.31799C12.162 1.47407 13.3066 0.999966 14.5 0.999966C15.6935 0.999966 16.8381 1.47407 17.682 2.31799C18.526 3.16191 19.0001 4.30651 19.0001 5.49999C19.0001 6.69347 18.526 7.83807 17.682 8.68199L10 16.364L2.31804 8.68199C1.90017 8.26413 1.5687 7.76805 1.34255 7.22208C1.1164 6.67611 1 6.09095 1 5.49999C1 4.90904 1.1164 4.32387 1.34255 3.7779Z" stroke="#3F3F46" stroke-width="2" stroke-linecap="round" stroke-linejoin="round"/>
</svg>
